<svg viewBox="0 0 121.454 21.76" xmlns="http://www.w3.org/2000/svg" xmlns:xlink="http://www.w3.org/1999/xlink" width="121.454102" height="21.760010" fill="none" customFrame="#000000">
	<path id="Logo" d="M8.192 21.44L2.176 21.44L2.176 10.24L0 10.24L0 5.312L2.304 5.312C2.944 2.272 5.92 0 11.2 0L12.48 0L12.48 4.288L10.24 4.288C8.60799 4.288 7.80708 4.44191 7.80708 5.26295C7.80708 5.27904 7.80739 5.29539 7.808 5.312L12.48 5.312L12.48 10.24L8.192 10.24L8.192 21.44ZM20.1047 3.84L14.0887 3.84L14.0887 0L20.1047 0L20.1047 3.84ZM28.3622 21.44L22.3462 21.44L22.3462 5.312L27.9783 5.312L27.9783 10.208L28.2983 10.208C28.6502 7.52 30.4103 4.992 34.7303 4.992C39.0823 4.992 41.1302 7.616 41.1302 11.104L41.1302 21.44L35.1143 21.44L35.1143 13.312C35.1143 11.072 34.2822 10.368 31.6582 10.368C29.0022 10.368 28.3622 11.04 28.3622 13.12L28.3622 21.44ZM48.4447 21.76C44.7967 21.76 42.7487 20.096 42.7487 17.344C42.7487 15.072 44.3167 13.44 47.9647 13.088L54.5247 12.448L54.5247 12.128C54.5247 10.496 53.8208 10.24 51.6768 10.24C49.6927 10.24 49.0848 10.624 49.0848 11.968L49.0848 12.096L43.0687 12.096L43.0687 12.032C43.0687 7.744 46.6527 4.992 52.1247 4.992C57.7567 4.992 60.4767 7.744 60.4767 12.256L60.4767 21.44L54.8447 21.44L54.8447 18.048L54.5247 18.048C53.9167 20.32 51.9327 21.76 48.4447 21.76ZM68.596 21.44L62.58 21.44L62.58 5.312L68.212 5.312L68.212 10.208L68.532 10.208C68.884 7.52 70.644 4.992 74.964 4.992C79.316 4.992 81.364 7.616 81.364 11.104L81.364 21.44L75.348 21.44L75.348 13.312C75.348 11.072 74.516 10.368 71.892 10.368C69.236 10.368 68.596 11.04 68.596 13.12L68.596 21.44ZM92.5185 21.76C86.7905 21.76 83.1425 18.592 83.1425 13.376C83.1425 8.128 86.7905 4.992 92.5185 4.992C98.0225 4.992 101.542 7.808 101.542 12.128L101.542 12.64L95.5585 12.64L95.5585 12.384C95.5585 10.72 94.3425 10.368 92.3905 10.368C90.1825 10.368 89.1265 10.848 89.1265 13.376C89.1265 15.872 90.1825 16.352 92.3905 16.352C94.3425 16.352 95.5585 16.032 95.5585 14.368L95.5585 14.08L101.542 14.08L101.542 14.624C101.542 18.912 98.0225 21.76 92.5185 21.76ZM112.462 21.76C106.99 21.76 103.15 19.424 103.15 13.376C103.15 8.128 106.958 4.992 112.334 4.992C117.902 4.992 121.454 7.776 121.454 12.96C121.454 13.504 121.422 13.92 121.358 14.496L108.718 14.496C108.814 16.448 109.678 16.992 112.238 16.992C114.67 16.992 115.31 16.576 115.31 15.616L115.31 15.264L121.326 15.264L121.326 15.648C121.326 19.232 117.902 21.76 112.462 21.76ZM20.1047 21.44L14.0887 21.44L14.0887 5.312L20.1047 5.312L20.1047 21.44ZM112.206 9.6C109.998 9.6 109.07 10.08 108.814 11.456L115.63 11.456C115.406 10.08 114.446 9.6 112.206 9.6ZM48.7967 16.96C48.7967 17.472 49.3087 17.568 50.2367 17.568C53.1487 17.568 54.3327 17.216 54.4927 15.776L49.5648 16.352C49.0208 16.416 48.7967 16.608 48.7967 16.96Z" fill="rgb(255,255,255)" fill-rule="evenodd" />
</svg>
